<?xml version="1.0" encoding="utf-8"?>
<svg viewBox="0 0 300 214" xmlns="http://www.w3.org/2000/svg">
  <g transform="matrix(0.05, 0, 0, -0.05, 5.831753, 224.649292)" fill="#6d408c" stroke="none">
    <path d="M4950 3101 c-158 -12 -149 -41 16 -53 66 -5 107 1 118 17 12 19 15 20 16 1 0 -17 29 -23 90 -18 54 4 104 -4 125 -20 54 -41 70 -33 25 12 -22 22 -40 48 -40 59 0 19 -115 20 -350 2z"/>
    <path d="M4032 3073 c6 -16 46 -28 100 -30 62 -2 86 4 77 19 -9 14 2 13 33 -3 35 -19 48 -19 54 -1 6 18 15 18 36 0 15 -12 45 -18 67 -12 21 5 42 1 46 -10 3 -10 46 -22 95 -26 88 -7 89 -6 32 19 l-58 26 62 9 c47 7 63 0 71 -28 5 -20 24 -36 42 -36 18 0 28 9 21 19 -6 11 11 26 39 33 130 32 19 48 -338 48 -318 0 -388 -5 -379 -27z"/>
    <path d="M2386 3047 c-5 -14 -38 -19 -89 -12 -79 10 -80 10 -74 -47 7 -60 77 -98 77 -42 0 38 59 62 70 29 4 -14 11 -275 14 -581 7 -638 -8 -594 206 -592 90 1 122 7 90 16 -80 22 -64 73 20 65 86 -8 92 -14 60 -53 -21 -26 -16 -30 38 -30 42 0 62 10 62 30 0 17 9 30 21 30 11 0 25 -13 32 -30 13 -35 109 -41 102 -6 -3 13 11 27 30 31 22 5 35 -4 35 -24 0 -24 22 -31 105 -29 81 2 92 6 47 15 -76 17 -100 73 -25 59 28 -6 55 -1 58 10 4 12 18 14 32 6 14 -9 19 -32 12 -54 -13 -43 150 -57 211 -18 31 19 67 1177 38 1223 -18 29 -1161 33 -1172 4z m1079 -104 c10 -10 15 -43 12 -74 l-7 -55 -500 -1 -500 0 7 69 c4 37 14 73 23 78 29 18 946 2 965 -17z m-733 -303 c29 0 48 -12 48 -30 0 -22 -23 -30 -90 -30 -49 0 -90 4 -90 8 0 37 30 72 54 63 16 -6 51 -11 78 -11z m584 -27 c6 -26 -9 -33 -75 -33 -61 0 -81 8 -81 32 0 23 12 29 40 22 22 -6 45 -2 52 9 17 28 57 9 64 -30z m224 -68 c0 -8 -115 -13 -255 -10 -472 10 -517 17 -130 21 212 2 385 -3 385 -11z m0 -156 l0 -109 -570 0 -570 0 0 110 0 109 570 -1 570 0 0 -109z m-73 -234 c30 -110 54 -105 -492 -103 -278 2 -503 8 -500 15 3 7 5 40 5 73 l0 60 488 0 487 0 12 -45z"/>
    <path d="M751 3010 c-7 -22 -11 -287 -11 -590 1 -629 -6 -603 174 -613 64 -4 105 -2 92 4 -46 22 -3 69 61 67 l63 -3 -60 -14 -60 -15 50 -20 c30 -13 53 -14 57 -3 4 11 18 9 33 -3 16 -14 31 -15 38 -3 7 11 28 15 48 10 20 -6 48 4 62 20 14 17 39 25 55 19 24 -9 25 -15 4 -28 -14 -8 53 -15 149 -14 183 1 196 5 139 48 -32 25 -32 27 10 27 32 1 45 -11 45 -39 0 -57 158 -58 209 -1 35 39 41 1137 6 1172 -38 39 -1153 19 -1164 -21z m178 -58 c-34 -25 20 -28 426 -22 443 7 465 6 465 -30 0 -20 6 -52 13 -72 10 -24 7 -30 -11 -19 -27 17 -907 16 -951 -2 -21 -7 -25 2 -18 36 18 80 53 137 84 137 24 0 22 -7 -8 -28z m151 -290 c0 -17 -59 -74 -62 -59 -14 69 -11 77 24 77 21 0 38 -8 38 -18z m300 -142 c21 -11 42 -13 47 -5 5 8 116 12 246 9 l237 -6 -3 -101 c-4 -130 53 -118 -580 -131 l-557 -12 7 113 7 113 263 4 263 4 -200 12 -200 12 216 4 c119 2 233 -5 254 -16z m454 -396 l5 -62 -489 -1 -490 -2 0 60 0 60 325 6 c179 3 397 4 485 3 l159 -2 5 -62z"/>
    <path d="M3934 3000 c-17 -45 -39 -316 -36 -436 4 -136 -9 -154 -72 -104 -28 22 -81 40 -119 40 l-67 0 0 -175 0 -175 122 7 c139 8 198 -23 110 -56 -30 -12 -95 -21 -143 -21 l-89 0 0 -107 c0 -101 -5 -111 -70 -155 -38 -27 -70 -59 -70 -72 0 -14 -13 -20 -32 -13 -25 10 -26 16 -5 29 16 10 -54 18 -169 18 -114 0 -192 -8 -185 -18 6 -10 0 -23 -14 -29 -14 -5 -5 -11 19 -11 24 -1 49 7 56 18 7 11 59 19 116 18 85 -2 93 -5 44 -16 -47 -11 -28 -17 89 -27 84 -8 155 -5 161 5 6 10 65 20 130 24 l120 6 -5 66 c-3 36 4 84 16 106 37 69 71 13 68 -111 -3 -82 4 -111 24 -111 26 0 30 102 36 1056 1 85 2 86 61 75 92 -17 1250 -13 1330 5 159 36 45 93 -130 66 -22 -4 -312 -6 -644 -4 l-605 2 -18 65 c-12 43 -22 55 -29 35z m-44 -710 c0 -31 -15 -41 -68 -46 -141 -14 -212 34 -107 73 89 33 175 20 175 -27z"/>
    <path d="M4097 2545 c-4 -74 0 -138 8 -142 8 -3 15 -46 15 -95 0 -48 -7 -88 -15 -88 -8 0 -12 -58 -8 -130 4 -84 -1 -130 -15 -130 -12 0 -22 -36 -22 -82 l0 -82 220 7 220 7 0 -50 0 -50 190 6 c172 6 190 10 190 45 0 36 16 39 220 39 l220 0 0 90 c0 50 -9 90 -20 90 -28 0 -25 194 3 212 15 9 12 19 -10 32 -44 24 -46 176 -3 176 17 0 30 9 30 20 0 11 -10 20 -23 20 -16 0 -19 36 -10 120 l12 120 -598 0 -598 0 -6 -135z m605 -25 c9 0 24 14 34 32 17 30 19 30 30 0 16 -40 54 -42 54 -2 0 17 9 30 20 30 11 0 20 -13 20 -30 0 -46 39 -36 58 15 l16 44 15 -44 c15 -49 41 -58 63 -22 9 14 23 6 39 -25 39 -72 33 -74 -326 -76 -415 -2 -457 9 -372 94 25 25 36 27 42 9 12 -37 65 -30 65 9 0 29 4 29 30 -5 30 -39 30 -39 60 0 26 34 30 34 30 5 0 -52 60 -41 61 11 l2 45 21 -45 c12 -25 29 -45 38 -45z m398 -128 c0 -5 6 -24 13 -44 12 -31 2 -33 -101 -22 -117 12 -169 -29 -155 -120 3 -14 -12 -21 -35 -16 -32 6 -41 -7 -52 -71 -14 -79 -25 -88 -100 -79 -22 3 -75 6 -118 7 -69 3 -81 11 -98 63 -25 78 -28 80 -62 52 -23 -20 -31 -16 -43 21 -9 28 -6 48 8 53 79 26 -31 112 -115 90 -41 -10 -60 29 -29 61 15 14 887 19 887 5z m-45 -167 c5 -15 -9 -25 -34 -25 -23 0 -47 -13 -54 -30 -16 -43 -47 -16 -47 42 0 55 118 66 135 13z m-641 -275 c-4 -86 -5 -88 -36 -47 -25 33 -35 37 -44 15 -8 -21 -11 -20 -12 6 -1 18 -20 39 -42 46 -63 20 -47 47 35 55 41 5 81 10 89 12 8 1 12 -37 10 -87z m724 69 c21 -1 16 -8 -14 -20 -38 -15 -42 -25 -24 -59 25 -47 29 -48 65 -13 23 24 34 22 73 -9 l46 -38 -47 -17 c-78 -29 -182 -5 -171 39 15 55 -20 67 -38 13 l-15 -45 -15 50 c-31 107 -23 126 45 113 34 -7 77 -14 95 -14z m-841 -129 c19 -20 -26 -50 -75 -50 -69 0 -89 18 -58 54 20 25 107 22 133 -4z"/>
    <path d="M2020 2578 l0 -55 140 3 c136 4 140 6 140 55 0 49 -4 51 -140 52 l-140 1 0 -56z"/>
    <path d="M509 2554 c-6 -15 -8 -121 -5 -235 l6 -209 70 0 70 0 6 235 5 235 -71 0 c-41 0 -76 -11 -81 -26z"/>
    <path d="M2024 2165 c-4 -242 8 -306 46 -245 23 37 50 20 50 -30 0 -51 -20 -54 -135 -19 -13 4 -34 -10 -45 -32 -12 -21 -35 -39 -51 -39 -16 0 -29 -18 -29 -40 0 -39 -12 -40 -365 -36 -201 2 -318 7 -259 11 194 13 85 45 -156 45 -209 0 -238 -4 -246 -35 -8 -32 -10 -31 -12 2 -1 25 -12 33 -32 26 -51 -20 -95 7 -67 40 19 23 15 31 -19 40 -23 6 -45 29 -48 51 -4 26 -25 -5 -64 -93 -74 -172 -57 -231 67 -231 56 0 91 -13 120 -44 67 -72 51 -82 -116 -72 -148 9 -262 50 -228 84 7 8 -2 8 -21 1 -19 -7 -34 -4 -34 7 0 12 16 25 35 29 28 7 25 13 -19 34 -31 15 -68 20 -90 11 -35 -16 -35 -17 0 -25 46 -11 35 -46 -22 -67 -32 -12 -44 -9 -44 11 0 51 -80 59 -114 11 -22 -32 -43 -40 -78 -31 -39 9 -48 4 -48 -28 0 -100 35 -102 1920 -111 2641 -14 3487 -11 3509 11 10 10 15 20 10 21 -5 0 -25 5 -44 10 -19 4 -51 12 -70 16 -19 5 -42 10 -50 10 -8 1 -15 32 -15 69 l0 68 153 3 c177 4 187 8 187 71 0 49 -137 311 -163 311 -24 0 4 -125 36 -162 33 -38 35 -58 4 -58 -12 0 -34 -15 -48 -34 -21 -29 -30 -30 -57 -8 -21 18 -32 19 -32 4 0 -15 -68 -22 -210 -22 -127 0 -210 -8 -210 -20 0 -11 14 -20 30 -20 17 0 30 -10 30 -22 0 -12 32 -20 75 -17 125 8 188 -5 95 -19 -76 -11 -80 -15 -74 -77 5 -48 -1 -65 -25 -65 -21 0 -31 19 -31 60 l0 60 -350 0 -350 0 0 -60 c0 -33 -9 -60 -20 -60 -11 0 -20 27 -20 60 0 58 -3 60 -90 60 -87 0 -90 -2 -90 -60 0 -42 -10 -60 -32 -60 -25 0 -30 14 -24 60 l9 60 -1035 -1 c-880 -1 -1038 -5 -1059 -30 -31 -38 -61 -37 -46 1 10 26 -56 30 -526 29 -477 0 -533 -4 -498 -30 38 -28 38 -29 -6 -29 -27 0 -52 19 -67 50 -16 35 -38 50 -75 50 -60 0 -139 49 -116 71 8 8 320 13 693 11 463 -3 682 2 691 17 7 11 65 23 127 25 l114 3 -100 7 c-184 12 -282 66 -120 66 39 0 70 -9 70 -20 0 -28 96 -22 180 10 65 25 66 27 17 28 -55 2 -91 80 -53 118 31 31 -42 84 -115 84 -71 0 -93 27 -39 47 17 7 30 29 30 49 0 53 21 68 56 39 17 -14 36 -22 42 -19 7 3 17 -28 22 -69 17 -124 60 -108 60 23 l0 113 -65 -3 c-191 -11 -192 -10 -200 105 -4 58 -9 -14 -11 -160z"/>
    <path d="M130 1926 c-190 -35 -156 -57 113 -77 207 -15 319 9 217 47 -57 21 -271 40 -330 30z"/>
    <path d="M2350 1800 c-7 -11 -5 -21 4 -22 9 -2 -11 -10 -44 -18 l-60 -15 55 -3 c30 -1 55 -11 55 -22 0 -26 599 -26 640 0 17 11 21 20 10 21 -11 1 -2 10 20 19 38 16 38 17 -5 19 -28 0 -45 -11 -45 -31 0 -27 -34 -31 -270 -25 -165 4 -270 15 -270 27 0 31 -76 73 -90 50z"/>
    <path d="M1360 1758 c0 -24 214 -23 229 1 7 11 -37 19 -108 18 -67 0 -121 -9 -121 -19z"/>
    <path d="M1660 1760 c0 -11 41 -19 90 -17 50 2 90 11 90 20 0 9 -40 17 -90 17 -49 0 -90 -9 -90 -20z"/>
    <path d="M2576 1765 c58 -4 148 -4 200 0 52 4 4 8 -106 8 -110 0 -152 -4 -94 -8z"/>
    <path d="M3987 1692 c-98 -54 165 -81 403 -42 l100 17 -70 16 c-38 9 -135 10 -215 4 -101 -8 -145 -5 -145 10 0 28 -16 27 -73 -5z"/>
    <path d="M 1118.2940063476562 -3954.90283203125 L 1118.2940063476562 -3478.77001953125 L 1050.2276000976562 -3478.77001953125 L 1050.2276000976562 -3886.83642578125 L 968.5479125976562 -3886.83642578125 L 968.5479125976562 -3954.90283203125 Z" transform="matrix(1, 0, 0, -1, 1932.0850830078125, -324.54974365234375)" style="white-space: pre;"/>
    <path transform="matrix(1, 0, 0, -1, 1932.0850830078125, -324.54974365234375)" style="white-space: pre;"/>
    <path d="M 1070.8135375976562 -3886.83642578125 L 1070.8135375976562 -3825.41064453125 L 1002.7471313476562 -3825.41064453125 L 1002.7471313476562 -3886.83642578125 Q 1002.7471313476562 -3900.78173828125 1008.0596313476562 -3913.23291015625 Q 1013.3721313476562 -3925.68408203125 1022.6690063476562 -3934.81494140625 Q 1031.9658813476562 -3943.94580078125 1044.4170532226562 -3949.42431640625 Q 1056.8682250976562 -3954.90283203125 1070.8135375976562 -3954.90283203125 L 1286.3018188476562 -3954.90283203125 Q 1300.2471313476562 -3954.90283203125 1312.6983032226562 -3949.42431640625 Q 1325.1494750976562 -3943.94580078125 1334.2803344726562 -3934.81494140625 Q 1343.4111938476562 -3925.68408203125 1348.8897094726562 -3913.23291015625 Q 1354.3682250976562 -3900.78173828125 1354.3682250976562 -3886.83642578125 L 1354.3682250976562 -3799.84423828125 Q 1354.3682250976562 -3785.89892578125 1351.7119750976562 -3774.94189453125 Q 1349.0557250976562 -3763.98486328125 1343.2451782226562 -3755.18603515625 Q 1337.4346313476562 -3746.38720703125 1328.4697875976562 -3739.41455078125 Q 1319.5049438476562 -3732.44189453125 1306.5557250976562 -3726.13330078125 L 1070.8135375976562 -3615.56689453125 L 1070.8135375976562 -3546.83642578125 L 1294.9346313476562 -3546.83642578125 L 1294.9346313476562 -3607.93017578125 L 1363.0010375976562 -3607.93017578125 L 1363.0010375976562 -3478.77001953125 L 1002.7471313476562 -3478.77001953125 L 1002.7471313476562 -3603.94580078125 Q 1002.7471313476562 -3617.89111328125 1005.5693969726562 -3628.84814453125 Q 1008.3916625976562 -3639.80517578125 1014.0361938476562 -3648.43798828125 Q 1019.6807250976562 -3657.07080078125 1028.8115844726562 -3664.20947265625 Q 1037.9424438476562 -3671.34814453125 1050.2276000976562 -3677.32470703125 L 1286.3018188476562 -3788.22314453125 L 1286.3018188476562 -3886.83642578125 Z" transform="matrix(1, 0, 0, -1, 1813.032958984375, -2639.504638671875)" style="white-space: pre;"/>
    <path transform="matrix(1, 0, 0, -1, 1813.032958984375, -2639.504638671875)" style="white-space: pre;"/>
    <path d="M 961.9072875976562 -3642.79345703125 L 1196.6533813476562 -3954.90283203125 L 1276.6729125976562 -3954.90283203125 L 1276.6729125976562 -3642.79345703125 L 1340.7549438476562 -3642.79345703125 L 1340.7549438476562 -3577.38330078125 L 1276.6729125976562 -3577.38330078125 L 1276.6729125976562 -3478.77001953125 L 1208.6065063476562 -3478.77001953125 L 1208.6065063476562 -3577.38330078125 L 961.9072875976562 -3577.38330078125 Z M 1208.6065063476562 -3642.79345703125 L 1208.6065063476562 -3872.55908203125 L 1035.9502563476562 -3642.79345703125 Z" transform="matrix(1, 0, 0, -1, 159.85784912109375, -2634.433837890625)" style="white-space: pre;"/>
    <path transform="matrix(1, 0, 0, -1, 159.85784912109375, -2634.433837890625)" style="white-space: pre;"/>
    <path d="M 982.1611938476562 -3622.87158203125 L 1048.8994750976562 -3622.87158203125 L 1048.8994750976562 -3597.63720703125 Q 1048.8994750976562 -3570.74267578125 1060.8526000976562 -3558.12548828125 Q 1072.8057250976562 -3545.50830078125 1100.0322875976562 -3545.50830078125 L 1237.1611938476562 -3545.50830078125 Q 1264.3877563476562 -3545.50830078125 1276.3408813476562 -3558.12548828125 Q 1288.2940063476562 -3570.74267578125 1288.2940063476562 -3597.63720703125 L 1288.2940063476562 -3634.49267578125 Q 1288.2940063476562 -3661.71923828125 1276.3408813476562 -3674.00439453125 Q 1264.3877563476562 -3686.28955078125 1237.1611938476562 -3686.28955078125 L 1096.3799438476562 -3686.28955078125 L 1096.3799438476562 -3752.69580078125 L 1235.1690063476562 -3752.69580078125 Q 1260.0713500976562 -3753.69189453125 1270.8623657226562 -3766.14306640625 Q 1281.6533813476562 -3778.59423828125 1281.6533813476562 -3804.49267578125 L 1281.6533813476562 -3835.70361328125 Q 1281.6533813476562 -3862.93017578125 1269.5342407226562 -3875.54736328125 Q 1257.4151000976562 -3888.16455078125 1230.5205688476562 -3888.16455078125 L 1106.6729125976562 -3888.16455078125 Q 1079.7783813476562 -3888.16455078125 1067.8252563476562 -3875.54736328125 Q 1055.8721313476562 -3862.93017578125 1055.8721313476562 -3835.70361328125 L 1055.8721313476562 -3810.46923828125 L 989.1338500976562 -3810.46923828125 L 989.1338500976562 -3839.02392578125 Q 989.1338500976562 -3954.90283203125 1104.6807250976562 -3954.90283203125 L 1232.5127563476562 -3954.90283203125 Q 1291.2822875976562 -3954.90283203125 1319.6709594726562 -3926.34814453125 Q 1348.0596313476562 -3897.79345703125 1348.0596313476562 -3839.02392578125 L 1348.0596313476562 -3830.39111328125 Q 1348.0596313476562 -3790.21533203125 1333.9483032226562 -3764.15087890625 Q 1319.8369750976562 -3738.08642578125 1292.9424438476562 -3725.46923828125 Q 1323.1572875976562 -3716.50439453125 1339.0947875976562 -3689.60986328125 Q 1355.0322875976562 -3662.71533203125 1355.0322875976562 -3618.22314453125 L 1355.0322875976562 -3594.31689453125 Q 1355.0322875976562 -3478.77001953125 1239.4854125976562 -3478.77001953125 L 1098.0401000976562 -3478.77001953125 Q 982.1611938476562 -3478.77001953125 982.1611938476562 -3594.31689453125 Z" transform="matrix(1, 0, 0, -1, 210.56883239746094, -342.3010559082031)" style="white-space: pre;"/>
    <path transform="matrix(1, 0, 0, -1, 210.56883239746094, -342.3010559082031)" style="white-space: pre;"/>
  </g>
</svg>